<?xml version="1.0" encoding="utf-8"?>
<svg xmlns="http://www.w3.org/2000/svg" fill="none" height="24" viewBox="0 0 72 24" width="72">
<path d="M30.9586 12.3076C30.9586 15.6389 28.3157 18.0936 25.0725 18.0936C21.8292 18.0936 19.1863 15.6389 19.1863 12.3076C19.1863 8.95278 21.8292 6.52148 25.0725 6.52148C28.3157 6.52148 30.9586 8.95278 30.9586 12.3076ZM28.3818 12.3076C28.3818 10.2258 26.8502 8.80148 25.0725 8.80148C23.2947 8.80148 21.7631 10.2258 21.7631 12.3076C21.7631 14.3684 23.2947 15.8136 25.0725 15.8136C26.8502 15.8136 28.3818 14.3658 28.3818 12.3076Z" fill="#A4ABB6"/>
<path d="M43.6576 12.3076C43.6576 15.6389 41.0147 18.0936 37.7713 18.0936C34.5281 18.0936 31.8853 15.6389 31.8853 12.3076C31.8853 8.95538 34.5281 6.52148 37.7713 6.52148C41.0147 6.52148 43.6576 8.95278 43.6576 12.3076ZM41.0808 12.3076C41.0808 10.2258 39.5492 8.80148 37.7713 8.80148C35.9936 8.80148 34.462 10.2258 34.462 12.3076C34.462 14.3684 35.9936 15.8136 37.7713 15.8136C39.5492 15.8136 41.0808 14.3658 41.0808 12.3076Z" fill="#A4ABB6"/>
<path d="M55.8265 6.87105V17.2589C55.8265 21.5319 53.271 23.2771 50.2499 23.2771C47.4061 23.2771 45.6945 21.4014 45.049 19.8676L47.2923 18.9468C47.6919 19.8884 48.6706 20.9998 50.2474 20.9998C52.1811 20.9998 53.3795 19.8233 53.3795 17.6084V16.7763H53.2896C52.7128 17.4779 51.6018 18.0911 50.1997 18.0911C47.266 18.0911 44.5781 15.5711 44.5781 12.3284C44.5781 9.06235 47.266 6.52148 50.1997 6.52148C51.5991 6.52148 52.7102 7.13452 53.2896 7.81538H53.3795V6.87365H55.8265V6.87105ZM53.5621 12.3284C53.5621 10.2911 52.1838 8.80148 50.4299 8.80148C48.652 8.80148 47.1627 10.2911 47.1627 12.3284C47.1627 14.345 48.652 15.8137 50.4299 15.8137C52.1838 15.8137 53.5621 14.345 53.5621 12.3284Z" fill="#A4ABB6"/>
<path d="M59.8602 0.782227V17.7388H57.3472V0.782227H59.8602Z" fill="#A4ABB6"/>
<path d="M69.6536 14.2126L71.6536 15.5274C71.0081 16.4691 69.4525 18.0917 66.7648 18.0917C63.4315 18.0917 60.9421 15.5508 60.9421 12.3056C60.9421 8.86475 63.4527 6.51953 66.4765 6.51953C69.5213 6.51953 71.0106 8.9091 71.4974 10.2004L71.7646 10.8578L63.921 14.0613C64.5215 15.2221 65.4553 15.8143 66.7648 15.8143C68.0769 15.8143 68.9869 15.1778 69.6536 14.2126ZM63.4976 12.1308L68.7409 9.98388C68.4526 9.26128 67.5849 8.7578 66.5637 8.7578C65.2542 8.7578 63.4315 9.8978 63.4976 12.1308Z" fill="#A4ABB6"/>
<path d="M9.67435 10.803V8.34826H18.0631C18.1451 8.77609 18.1873 9.28217 18.1873 9.83001C18.1873 11.6717 17.6767 13.9491 16.0313 15.5717C14.4308 17.2152 12.3859 18.0917 9.677 18.0917C4.65595 18.0917 0.433838 14.0587 0.433838 9.10739C0.433838 4.15609 4.65595 0.123047 9.677 0.123047C12.4547 0.123047 14.4335 1.19783 15.9202 2.59871L14.1637 4.33087C13.0975 3.34479 11.6531 2.57782 9.67435 2.57782C6.00777 2.57782 3.14013 5.49174 3.14013 9.10739C3.14013 12.723 6.00777 15.637 9.67435 15.637C12.0526 15.637 13.4071 14.6952 14.2748 13.8396C14.9784 13.1457 15.4414 12.1544 15.6239 10.8004L9.67435 10.803Z" fill="#A4ABB6"/>
</svg>