<?xml version="1.0" encoding="utf-8"?>
<svg xmlns="http://www.w3.org/2000/svg" fill="none" height="24" viewBox="0 0 60 24" width="60">
<path clip-rule="evenodd" d="M59.1632 12.4003C59.1632 8.2988 57.1429 5.0625 53.2815 5.0625C49.4037 5.0625 47.0576 8.2988 47.0576 12.3682C47.0576 17.1907 49.8273 19.6258 53.8029 19.6258C55.7417 19.6258 57.208 19.1933 58.3159 18.5845V15.3803C57.208 15.925 55.9371 16.2614 54.3242 16.2614C52.7437 16.2614 51.3425 15.7167 51.1634 13.8262H59.1307C59.1307 13.6179 59.1632 12.7848 59.1632 12.4003ZM51.1146 10.8783C51.1146 9.06783 52.2386 8.31483 53.2651 8.31483C54.259 8.31483 55.3181 9.06783 55.3181 10.8783H51.1146Z" fill="#A4ABB6" fill-rule="evenodd"/>
<path clip-rule="evenodd" d="M40.7685 5.0625C39.1717 5.0625 38.1452 5.79948 37.5751 6.31217L37.3632 5.31883H33.7788V23.9997L37.852 23.1507L37.8683 18.6165C38.4549 19.0332 39.3185 19.6258 40.7522 19.6258C43.6686 19.6258 46.3244 17.3188 46.3244 12.2401C46.308 7.59387 43.6197 5.0625 40.7685 5.0625ZM39.7908 16.1012C38.8297 16.1012 38.2593 15.7648 37.8683 15.3482L37.852 9.40428C38.2756 8.93967 38.8622 8.61923 39.7908 8.61923C41.2736 8.61923 42.3 10.2534 42.3 12.3522C42.3 14.4991 41.2898 16.1012 39.7908 16.1012Z" fill="#A4ABB6" fill-rule="evenodd"/>
<path clip-rule="evenodd" d="M28.1736 4.11748L32.2631 3.25233V0L28.1736 0.849132V4.11748Z" fill="#A4ABB6" fill-rule="evenodd"/>
<path d="M32.2631 5.33496H28.1736V19.3537H32.2631V5.33496Z" fill="#A4ABB6"/>
<path clip-rule="evenodd" d="M23.7912 6.52111L23.5305 5.33552H20.0112V19.3542H24.0844V9.85356C25.0458 8.61991 26.6751 8.84421 27.1802 9.02044V5.33552C26.6589 5.14327 24.7526 4.79081 23.7912 6.52111Z" fill="#A4ABB6" fill-rule="evenodd"/>
<path clip-rule="evenodd" d="M15.6451 1.8584L11.6696 2.69151L11.6533 15.5246C11.6533 17.8958 13.4618 19.6422 15.8732 19.6422C17.2092 19.6422 18.1867 19.4018 18.7245 19.1133V15.8611C18.203 16.0693 15.6288 16.8063 15.6288 14.4352V8.74758H18.7245V5.33503H15.6288L15.6451 1.8584Z" fill="#A4ABB6" fill-rule="evenodd"/>
<path clip-rule="evenodd" d="M4.63065 9.40428C4.63065 8.77945 5.15202 8.53913 6.01554 8.53913C7.25382 8.53913 8.81793 8.90762 10.0562 9.5645V5.79947C8.70388 5.27077 7.36787 5.0625 6.01554 5.0625C2.70809 5.0625 0.508545 6.76075 0.508545 9.59653C0.508545 14.0184 6.69985 13.3135 6.69985 15.22C6.69985 15.957 6.04814 16.1973 5.13573 16.1973C3.78343 16.1973 2.05637 15.6526 0.687767 14.9156V18.7287C2.20301 19.3695 3.73454 19.642 5.13573 19.642C8.52466 19.642 10.8545 17.9917 10.8545 15.1239C10.8383 10.3495 4.63065 11.1987 4.63065 9.40428Z" fill="#A4ABB6" fill-rule="evenodd"/>
</svg>